<svg xmlns="http://www.w3.org/2000/svg" xmlns:xlink="http://www.w3.org/1999/xlink" width="268pt" height="1002pt" viewBox="0.00 0.00 268.00 1002.00">
<g id="graph0" class="graph" transform="scale(1 1) rotate(0) translate(4 997.6)">
<title>FoxAndHounds</title>
<polygon fill="white" stroke="none" points="-4,4 -4,-997.6 263.6,-997.6 263.6,4 -4,4"/>
<!-- M0 -->
<g id="node1" class="node">
<title>M0</title>
<ellipse fill="#ffe082" stroke="#ff8f00" stroke-width="2.5" cx="129.8" cy="-964.8" rx="28.8" ry="28.8"/>
<text xml:space="preserve" text-anchor="middle" x="129.8" y="-960.6" font-family="Helvetica,sans-Serif" font-size="14.00">🐔 M0</text>
</g>
<!-- L1 -->
<g id="node2" class="node">
<title>L1</title>
<ellipse fill="#bbdefb" stroke="#1976d2" stroke-width="2" cx="28.8" cy="-871.2" rx="28.8" ry="28.8"/>
<text xml:space="preserve" text-anchor="middle" x="28.8" y="-867" font-family="Helvetica,sans-Serif" font-size="14.00">🐶 L1</text>
</g>
<!-- M0&#45;&#45;L1 -->
<g id="edge1" class="edge">
<title>M0--L1</title>
<path fill="none" stroke="#424242" stroke-width="1.5" d="M108.38,-944.37C91.24,-928.83 67.32,-907.14 50.19,-891.6"/>
</g>
<!-- M1 -->
<g id="node3" class="node">
<title>M1</title>
<ellipse fill="#bbdefb" stroke="#1976d2" stroke-width="2" cx="129.8" cy="-871.2" rx="28.8" ry="28.8"/>
<text xml:space="preserve" text-anchor="middle" x="129.8" y="-867" font-family="Helvetica,sans-Serif" font-size="14.00">🐶 M1</text>
</g>
<!-- M0&#45;&#45;M1 -->
<g id="edge2" class="edge">
<title>M0--M1</title>
<path fill="none" stroke="#424242" stroke-width="1.5" d="M129.8,-934.82C129.8,-924.02 129.8,-911.77 129.8,-900.99"/>
</g>
<!-- R1 -->
<g id="node4" class="node">
<title>R1</title>
<ellipse fill="#bbdefb" stroke="#1976d2" stroke-width="2" cx="230.8" cy="-871.2" rx="28.8" ry="28.8"/>
<text xml:space="preserve" text-anchor="middle" x="230.8" y="-867" font-family="Helvetica,sans-Serif" font-size="14.00">🐶 R1</text>
</g>
<!-- M0&#45;&#45;R1 -->
<g id="edge3" class="edge">
<title>M0--R1</title>
<path fill="none" stroke="#424242" stroke-width="1.5" d="M151.22,-944.37C168.36,-928.83 192.28,-907.14 209.41,-891.6"/>
</g>
<!-- L1&#45;&#45;M1 -->
<g id="edge4" class="edge">
<title>L1--M1</title>
<path fill="none" stroke="#424242" stroke-width="1.5" d="M58.39,-871.2C72.34,-871.2 86.28,-871.2 100.23,-871.2"/>
</g>
<!-- L2 -->
<g id="node5" class="node">
<title>L2</title>
<ellipse fill="#f5f5f5" stroke="#757575" cx="28.8" cy="-777.6" rx="28.8" ry="28.8"/>
<text xml:space="preserve" text-anchor="middle" x="28.8" y="-773.4" font-family="Helvetica,sans-Serif" font-size="14.00">L2</text>
</g>
<!-- L1&#45;&#45;L2 -->
<g id="edge20" class="edge">
<title>L1--L2</title>
<path fill="none" stroke="#424242" stroke-width="1.5" d="M28.8,-841.72C28.8,-830.59 28.8,-817.85 28.8,-806.75"/>
</g>
<!-- M2 -->
<g id="node6" class="node">
<title>M2</title>
<ellipse fill="#f5f5f5" stroke="#757575" cx="129.8" cy="-777.6" rx="28.8" ry="28.8"/>
<text xml:space="preserve" text-anchor="middle" x="129.8" y="-773.4" font-family="Helvetica,sans-Serif" font-size="14.00">M2</text>
</g>
<!-- L1&#45;&#45;M2 -->
<g id="edge21" class="edge">
<title>L1--M2</title>
<path fill="none" stroke="#424242" stroke-width="1.5" d="M50.22,-850.77C67.48,-835.12 91.6,-813.24 108.76,-797.68"/>
</g>
<!-- M1&#45;&#45;R1 -->
<g id="edge5" class="edge">
<title>M1--R1</title>
<path fill="none" stroke="#424242" stroke-width="1.5" d="M159.39,-871.2C173.34,-871.2 187.28,-871.2 201.23,-871.2"/>
</g>
<!-- M1&#45;&#45;L2 -->
<g id="edge22" class="edge">
<title>M1--L2</title>
<path fill="none" stroke="#424242" stroke-width="1.5" d="M108.38,-850.77C91.12,-835.12 67,-813.24 49.84,-797.68"/>
</g>
<!-- M1&#45;&#45;M2 -->
<g id="edge23" class="edge">
<title>M1--M2</title>
<path fill="none" stroke="#424242" stroke-width="1.5" d="M129.8,-841.72C129.8,-830.59 129.8,-817.85 129.8,-806.75"/>
</g>
<!-- R2 -->
<g id="node7" class="node">
<title>R2</title>
<ellipse fill="#f5f5f5" stroke="#757575" cx="230.8" cy="-777.6" rx="28.8" ry="28.8"/>
<text xml:space="preserve" text-anchor="middle" x="230.8" y="-773.4" font-family="Helvetica,sans-Serif" font-size="14.00">R2</text>
</g>
<!-- M1&#45;&#45;R2 -->
<g id="edge24" class="edge">
<title>M1--R2</title>
<path fill="none" stroke="#424242" stroke-width="1.5" d="M151.22,-850.77C168.48,-835.12 192.6,-813.24 209.76,-797.68"/>
</g>
<!-- R1&#45;&#45;M2 -->
<g id="edge25" class="edge">
<title>R1--M2</title>
<path fill="none" stroke="#424242" stroke-width="1.5" d="M209.38,-850.77C192.12,-835.12 168,-813.24 150.84,-797.68"/>
</g>
<!-- R1&#45;&#45;R2 -->
<g id="edge26" class="edge">
<title>R1--R2</title>
<path fill="none" stroke="#424242" stroke-width="1.5" d="M230.8,-841.72C230.8,-830.59 230.8,-817.85 230.8,-806.75"/>
</g>
<!-- L2&#45;&#45;M2 -->
<g id="edge6" class="edge">
<title>L2--M2</title>
<path fill="none" stroke="#424242" stroke-width="1.5" d="M58,-777.6C72.21,-777.6 86.42,-777.6 100.63,-777.6"/>
</g>
<!-- L3 -->
<g id="node8" class="node">
<title>L3</title>
<ellipse fill="#f5f5f5" stroke="#757575" cx="28.8" cy="-684" rx="28.8" ry="28.8"/>
<text xml:space="preserve" text-anchor="middle" x="28.8" y="-679.8" font-family="Helvetica,sans-Serif" font-size="14.00">L3</text>
</g>
<!-- L2&#45;&#45;L3 -->
<g id="edge27" class="edge">
<title>L2--L3</title>
<path fill="none" stroke="#424242" stroke-width="1.5" d="M28.8,-748.62C28.8,-737.36 28.8,-724.4 28.8,-713.13"/>
</g>
<!-- M3 -->
<g id="node9" class="node">
<title>M3</title>
<ellipse fill="#f5f5f5" stroke="#757575" cx="129.8" cy="-684" rx="28.8" ry="28.8"/>
<text xml:space="preserve" text-anchor="middle" x="129.8" y="-679.8" font-family="Helvetica,sans-Serif" font-size="14.00">M3</text>
</g>
<!-- L2&#45;&#45;M3 -->
<g id="edge28" class="edge">
<title>L2--M3</title>
<path fill="none" stroke="#424242" stroke-width="1.5" d="M49.73,-757.62C67.06,-741.9 91.57,-719.67 108.9,-703.96"/>
</g>
<!-- M2&#45;&#45;R2 -->
<g id="edge7" class="edge">
<title>M2--R2</title>
<path fill="none" stroke="#424242" stroke-width="1.5" d="M159,-777.6C173.21,-777.6 187.42,-777.6 201.63,-777.6"/>
</g>
<!-- M2&#45;&#45;L3 -->
<g id="edge29" class="edge">
<title>M2--L3</title>
<path fill="none" stroke="#424242" stroke-width="1.5" d="M108.87,-757.62C91.54,-741.9 67.03,-719.67 49.7,-703.96"/>
</g>
<!-- M2&#45;&#45;M3 -->
<g id="edge30" class="edge">
<title>M2--M3</title>
<path fill="none" stroke="#424242" stroke-width="1.5" d="M129.8,-748.62C129.8,-737.36 129.8,-724.4 129.8,-713.13"/>
</g>
<!-- R3 -->
<g id="node10" class="node">
<title>R3</title>
<ellipse fill="#f5f5f5" stroke="#757575" cx="230.8" cy="-684" rx="28.8" ry="28.8"/>
<text xml:space="preserve" text-anchor="middle" x="230.8" y="-679.8" font-family="Helvetica,sans-Serif" font-size="14.00">R3</text>
</g>
<!-- M2&#45;&#45;R3 -->
<g id="edge31" class="edge">
<title>M2--R3</title>
<path fill="none" stroke="#424242" stroke-width="1.5" d="M150.73,-757.62C168.06,-741.9 192.57,-719.67 209.9,-703.96"/>
</g>
<!-- R2&#45;&#45;M3 -->
<g id="edge32" class="edge">
<title>R2--M3</title>
<path fill="none" stroke="#424242" stroke-width="1.5" d="M209.87,-757.62C192.54,-741.9 168.03,-719.67 150.7,-703.96"/>
</g>
<!-- R2&#45;&#45;R3 -->
<g id="edge33" class="edge">
<title>R2--R3</title>
<path fill="none" stroke="#424242" stroke-width="1.5" d="M230.8,-748.62C230.8,-737.36 230.8,-724.4 230.8,-713.13"/>
</g>
<!-- L3&#45;&#45;M3 -->
<g id="edge8" class="edge">
<title>L3--M3</title>
<path fill="none" stroke="#424242" stroke-width="1.5" d="M58,-684C72.21,-684 86.42,-684 100.63,-684"/>
</g>
<!-- L4 -->
<g id="node11" class="node">
<title>L4</title>
<ellipse fill="#f5f5f5" stroke="#757575" cx="28.8" cy="-590.4" rx="28.8" ry="28.8"/>
<text xml:space="preserve" text-anchor="middle" x="28.8" y="-586.2" font-family="Helvetica,sans-Serif" font-size="14.00">L4</text>
</g>
<!-- L3&#45;&#45;L4 -->
<g id="edge34" class="edge">
<title>L3--L4</title>
<path fill="none" stroke="#424242" stroke-width="1.5" d="M28.8,-655.02C28.8,-643.76 28.8,-630.8 28.8,-619.53"/>
</g>
<!-- M4 -->
<g id="node12" class="node">
<title>M4</title>
<ellipse fill="#f5f5f5" stroke="#757575" cx="129.8" cy="-590.4" rx="28.8" ry="28.8"/>
<text xml:space="preserve" text-anchor="middle" x="129.8" y="-586.2" font-family="Helvetica,sans-Serif" font-size="14.00">M4</text>
</g>
<!-- L3&#45;&#45;M4 -->
<g id="edge35" class="edge">
<title>L3--M4</title>
<path fill="none" stroke="#424242" stroke-width="1.5" d="M49.73,-664.02C67.06,-648.3 91.57,-626.07 108.9,-610.36"/>
</g>
<!-- M3&#45;&#45;R3 -->
<g id="edge9" class="edge">
<title>M3--R3</title>
<path fill="none" stroke="#424242" stroke-width="1.5" d="M159,-684C173.21,-684 187.42,-684 201.63,-684"/>
</g>
<!-- M3&#45;&#45;L4 -->
<g id="edge36" class="edge">
<title>M3--L4</title>
<path fill="none" stroke="#424242" stroke-width="1.5" d="M108.87,-664.02C91.54,-648.3 67.03,-626.07 49.7,-610.36"/>
</g>
<!-- M3&#45;&#45;M4 -->
<g id="edge37" class="edge">
<title>M3--M4</title>
<path fill="none" stroke="#424242" stroke-width="1.5" d="M129.8,-655.02C129.8,-643.76 129.8,-630.8 129.8,-619.53"/>
</g>
<!-- R4 -->
<g id="node13" class="node">
<title>R4</title>
<ellipse fill="#f5f5f5" stroke="#757575" cx="230.8" cy="-590.4" rx="28.8" ry="28.8"/>
<text xml:space="preserve" text-anchor="middle" x="230.8" y="-586.2" font-family="Helvetica,sans-Serif" font-size="14.00">R4</text>
</g>
<!-- M3&#45;&#45;R4 -->
<g id="edge38" class="edge">
<title>M3--R4</title>
<path fill="none" stroke="#424242" stroke-width="1.5" d="M150.73,-664.02C168.06,-648.3 192.57,-626.07 209.9,-610.36"/>
</g>
<!-- R3&#45;&#45;M4 -->
<g id="edge39" class="edge">
<title>R3--M4</title>
<path fill="none" stroke="#424242" stroke-width="1.5" d="M209.87,-664.02C192.54,-648.3 168.03,-626.07 150.7,-610.36"/>
</g>
<!-- R3&#45;&#45;R4 -->
<g id="edge40" class="edge">
<title>R3--R4</title>
<path fill="none" stroke="#424242" stroke-width="1.5" d="M230.8,-655.02C230.8,-643.76 230.8,-630.8 230.8,-619.53"/>
</g>
<!-- L4&#45;&#45;M4 -->
<g id="edge10" class="edge">
<title>L4--M4</title>
<path fill="none" stroke="#424242" stroke-width="1.5" d="M58,-590.4C72.21,-590.4 86.42,-590.4 100.63,-590.4"/>
</g>
<!-- L5 -->
<g id="node14" class="node">
<title>L5</title>
<ellipse fill="#f5f5f5" stroke="#757575" cx="28.8" cy="-496.8" rx="28.8" ry="28.8"/>
<text xml:space="preserve" text-anchor="middle" x="28.8" y="-492.6" font-family="Helvetica,sans-Serif" font-size="14.00">L5</text>
</g>
<!-- L4&#45;&#45;L5 -->
<g id="edge41" class="edge">
<title>L4--L5</title>
<path fill="none" stroke="#424242" stroke-width="1.5" d="M28.8,-561.42C28.8,-550.16 28.8,-537.2 28.8,-525.93"/>
</g>
<!-- M5 -->
<g id="node15" class="node">
<title>M5</title>
<ellipse fill="#f5f5f5" stroke="#757575" cx="129.8" cy="-496.8" rx="28.8" ry="28.8"/>
<text xml:space="preserve" text-anchor="middle" x="129.8" y="-492.6" font-family="Helvetica,sans-Serif" font-size="14.00">M5</text>
</g>
<!-- L4&#45;&#45;M5 -->
<g id="edge42" class="edge">
<title>L4--M5</title>
<path fill="none" stroke="#424242" stroke-width="1.5" d="M49.73,-570.42C67.06,-554.7 91.57,-532.47 108.9,-516.76"/>
</g>
<!-- M4&#45;&#45;R4 -->
<g id="edge11" class="edge">
<title>M4--R4</title>
<path fill="none" stroke="#424242" stroke-width="1.5" d="M159,-590.4C173.21,-590.4 187.42,-590.4 201.63,-590.4"/>
</g>
<!-- M4&#45;&#45;L5 -->
<g id="edge43" class="edge">
<title>M4--L5</title>
<path fill="none" stroke="#424242" stroke-width="1.5" d="M108.87,-570.42C91.54,-554.7 67.03,-532.47 49.7,-516.76"/>
</g>
<!-- M4&#45;&#45;M5 -->
<g id="edge44" class="edge">
<title>M4--M5</title>
<path fill="none" stroke="#424242" stroke-width="1.5" d="M129.8,-561.42C129.8,-550.16 129.8,-537.2 129.8,-525.93"/>
</g>
<!-- R5 -->
<g id="node16" class="node">
<title>R5</title>
<ellipse fill="#f5f5f5" stroke="#757575" cx="230.8" cy="-496.8" rx="28.8" ry="28.8"/>
<text xml:space="preserve" text-anchor="middle" x="230.8" y="-492.6" font-family="Helvetica,sans-Serif" font-size="14.00">R5</text>
</g>
<!-- M4&#45;&#45;R5 -->
<g id="edge45" class="edge">
<title>M4--R5</title>
<path fill="none" stroke="#424242" stroke-width="1.5" d="M150.73,-570.42C168.06,-554.7 192.57,-532.47 209.9,-516.76"/>
</g>
<!-- R4&#45;&#45;M5 -->
<g id="edge46" class="edge">
<title>R4--M5</title>
<path fill="none" stroke="#424242" stroke-width="1.5" d="M209.87,-570.42C192.54,-554.7 168.03,-532.47 150.7,-516.76"/>
</g>
<!-- R4&#45;&#45;R5 -->
<g id="edge47" class="edge">
<title>R4--R5</title>
<path fill="none" stroke="#424242" stroke-width="1.5" d="M230.8,-561.42C230.8,-550.16 230.8,-537.2 230.8,-525.93"/>
</g>
<!-- L5&#45;&#45;M5 -->
<g id="edge12" class="edge">
<title>L5--M5</title>
<path fill="none" stroke="#424242" stroke-width="1.5" d="M58,-496.8C72.21,-496.8 86.42,-496.8 100.63,-496.8"/>
</g>
<!-- L6 -->
<g id="node17" class="node">
<title>L6</title>
<ellipse fill="#f5f5f5" stroke="#757575" cx="28.8" cy="-403.2" rx="28.8" ry="28.8"/>
<text xml:space="preserve" text-anchor="middle" x="28.8" y="-399" font-family="Helvetica,sans-Serif" font-size="14.00">L6</text>
</g>
<!-- L5&#45;&#45;L6 -->
<g id="edge48" class="edge">
<title>L5--L6</title>
<path fill="none" stroke="#424242" stroke-width="1.5" d="M28.8,-467.82C28.8,-456.56 28.8,-443.6 28.8,-432.33"/>
</g>
<!-- M6 -->
<g id="node18" class="node">
<title>M6</title>
<ellipse fill="#f5f5f5" stroke="#757575" cx="129.8" cy="-403.2" rx="28.8" ry="28.8"/>
<text xml:space="preserve" text-anchor="middle" x="129.8" y="-399" font-family="Helvetica,sans-Serif" font-size="14.00">M6</text>
</g>
<!-- L5&#45;&#45;M6 -->
<g id="edge49" class="edge">
<title>L5--M6</title>
<path fill="none" stroke="#424242" stroke-width="1.5" d="M49.73,-476.82C67.06,-461.1 91.57,-438.87 108.9,-423.16"/>
</g>
<!-- M5&#45;&#45;R5 -->
<g id="edge13" class="edge">
<title>M5--R5</title>
<path fill="none" stroke="#424242" stroke-width="1.5" d="M159,-496.8C173.21,-496.8 187.42,-496.8 201.63,-496.8"/>
</g>
<!-- M5&#45;&#45;L6 -->
<g id="edge50" class="edge">
<title>M5--L6</title>
<path fill="none" stroke="#424242" stroke-width="1.5" d="M108.87,-476.82C91.54,-461.1 67.03,-438.87 49.7,-423.16"/>
</g>
<!-- M5&#45;&#45;M6 -->
<g id="edge51" class="edge">
<title>M5--M6</title>
<path fill="none" stroke="#424242" stroke-width="1.5" d="M129.8,-467.82C129.8,-456.56 129.8,-443.6 129.8,-432.33"/>
</g>
<!-- R6 -->
<g id="node19" class="node">
<title>R6</title>
<ellipse fill="#f5f5f5" stroke="#757575" cx="230.8" cy="-403.2" rx="28.8" ry="28.8"/>
<text xml:space="preserve" text-anchor="middle" x="230.8" y="-399" font-family="Helvetica,sans-Serif" font-size="14.00">R6</text>
</g>
<!-- M5&#45;&#45;R6 -->
<g id="edge52" class="edge">
<title>M5--R6</title>
<path fill="none" stroke="#424242" stroke-width="1.5" d="M150.73,-476.82C168.06,-461.1 192.57,-438.87 209.9,-423.16"/>
</g>
<!-- R5&#45;&#45;M6 -->
<g id="edge53" class="edge">
<title>R5--M6</title>
<path fill="none" stroke="#424242" stroke-width="1.5" d="M209.87,-476.82C192.54,-461.1 168.03,-438.87 150.7,-423.16"/>
</g>
<!-- R5&#45;&#45;R6 -->
<g id="edge54" class="edge">
<title>R5--R6</title>
<path fill="none" stroke="#424242" stroke-width="1.5" d="M230.8,-467.82C230.8,-456.56 230.8,-443.6 230.8,-432.33"/>
</g>
<!-- L6&#45;&#45;M6 -->
<g id="edge14" class="edge">
<title>L6--M6</title>
<path fill="none" stroke="#424242" stroke-width="1.5" d="M58,-403.2C72.21,-403.2 86.42,-403.2 100.63,-403.2"/>
</g>
<!-- M7 -->
<g id="node20" class="node">
<title>M7</title>
<ellipse fill="#f5f5f5" stroke="#757575" cx="129.8" cy="-309.6" rx="28.8" ry="28.8"/>
<text xml:space="preserve" text-anchor="middle" x="129.8" y="-305.4" font-family="Helvetica,sans-Serif" font-size="14.00">M7</text>
</g>
<!-- L6&#45;&#45;M7 -->
<g id="edge55" class="edge">
<title>L6--M7</title>
<path fill="none" stroke="#424242" stroke-width="1.5" d="M49.73,-383.22C67.06,-367.5 91.57,-345.27 108.9,-329.56"/>
</g>
<!-- M6&#45;&#45;R6 -->
<g id="edge15" class="edge">
<title>M6--R6</title>
<path fill="none" stroke="#424242" stroke-width="1.5" d="M159,-403.2C173.21,-403.2 187.42,-403.2 201.63,-403.2"/>
</g>
<!-- M6&#45;&#45;M7 -->
<g id="edge56" class="edge">
<title>M6--M7</title>
<path fill="none" stroke="#424242" stroke-width="1.5" d="M129.8,-374.22C129.8,-362.96 129.8,-350 129.8,-338.73"/>
</g>
<!-- R6&#45;&#45;M7 -->
<g id="edge57" class="edge">
<title>R6--M7</title>
<path fill="none" stroke="#424242" stroke-width="1.5" d="M209.87,-383.22C192.54,-367.5 168.03,-345.27 150.7,-329.56"/>
</g>
<!-- L8 -->
<g id="node21" class="node">
<title>L8</title>
<ellipse fill="#f5f5f5" stroke="#757575" cx="28.8" cy="-216" rx="28.8" ry="28.8"/>
<text xml:space="preserve" text-anchor="middle" x="28.8" y="-211.8" font-family="Helvetica,sans-Serif" font-size="14.00">L8</text>
</g>
<!-- M7&#45;&#45;L8 -->
<g id="edge58" class="edge">
<title>M7--L8</title>
<path fill="none" stroke="#424242" stroke-width="1.5" d="M108.87,-289.62C91.54,-273.9 67.03,-251.67 49.7,-235.96"/>
</g>
<!-- M8 -->
<g id="node22" class="node">
<title>M8</title>
<ellipse fill="#f5f5f5" stroke="#757575" cx="129.8" cy="-216" rx="28.8" ry="28.8"/>
<text xml:space="preserve" text-anchor="middle" x="129.8" y="-211.8" font-family="Helvetica,sans-Serif" font-size="14.00">M8</text>
</g>
<!-- M7&#45;&#45;M8 -->
<g id="edge59" class="edge">
<title>M7--M8</title>
<path fill="none" stroke="#424242" stroke-width="1.5" d="M129.8,-280.62C129.8,-269.36 129.8,-256.4 129.8,-245.13"/>
</g>
<!-- R8 -->
<g id="node23" class="node">
<title>R8</title>
<ellipse fill="#f5f5f5" stroke="#757575" cx="230.8" cy="-216" rx="28.8" ry="28.8"/>
<text xml:space="preserve" text-anchor="middle" x="230.8" y="-211.8" font-family="Helvetica,sans-Serif" font-size="14.00">R8</text>
</g>
<!-- M7&#45;&#45;R8 -->
<g id="edge60" class="edge">
<title>M7--R8</title>
<path fill="none" stroke="#424242" stroke-width="1.5" d="M150.73,-289.62C168.06,-273.9 192.57,-251.67 209.9,-235.96"/>
</g>
<!-- L8&#45;&#45;M8 -->
<g id="edge16" class="edge">
<title>L8--M8</title>
<path fill="none" stroke="#424242" stroke-width="1.5" d="M58,-216C72.21,-216 86.42,-216 100.63,-216"/>
</g>
<!-- L9 -->
<g id="node24" class="node">
<title>L9</title>
<ellipse fill="#f5f5f5" stroke="#757575" cx="28.8" cy="-122.4" rx="28.8" ry="28.8"/>
<text xml:space="preserve" text-anchor="middle" x="28.8" y="-118.2" font-family="Helvetica,sans-Serif" font-size="14.00">L9</text>
</g>
<!-- L8&#45;&#45;L9 -->
<g id="edge61" class="edge">
<title>L8--L9</title>
<path fill="none" stroke="#424242" stroke-width="1.5" d="M28.8,-187.02C28.8,-175.76 28.8,-162.8 28.8,-151.53"/>
</g>
<!-- M9 -->
<g id="node25" class="node">
<title>M9</title>
<ellipse fill="#f5f5f5" stroke="#757575" cx="129.8" cy="-122.4" rx="28.8" ry="28.8"/>
<text xml:space="preserve" text-anchor="middle" x="129.8" y="-118.2" font-family="Helvetica,sans-Serif" font-size="14.00">M9</text>
</g>
<!-- L8&#45;&#45;M9 -->
<g id="edge62" class="edge">
<title>L8--M9</title>
<path fill="none" stroke="#424242" stroke-width="1.5" d="M49.73,-196.02C67.06,-180.3 91.57,-158.07 108.9,-142.36"/>
</g>
<!-- M8&#45;&#45;R8 -->
<g id="edge17" class="edge">
<title>M8--R8</title>
<path fill="none" stroke="#424242" stroke-width="1.5" d="M159,-216C173.21,-216 187.42,-216 201.63,-216"/>
</g>
<!-- M8&#45;&#45;L9 -->
<g id="edge63" class="edge">
<title>M8--L9</title>
<path fill="none" stroke="#424242" stroke-width="1.5" d="M108.87,-196.02C91.54,-180.3 67.03,-158.07 49.7,-142.36"/>
</g>
<!-- M8&#45;&#45;M9 -->
<g id="edge64" class="edge">
<title>M8--M9</title>
<path fill="none" stroke="#424242" stroke-width="1.5" d="M129.8,-187.02C129.8,-175.76 129.8,-162.8 129.8,-151.53"/>
</g>
<!-- R9 -->
<g id="node26" class="node">
<title>R9</title>
<ellipse fill="#f5f5f5" stroke="#757575" cx="230.8" cy="-122.4" rx="28.8" ry="28.8"/>
<text xml:space="preserve" text-anchor="middle" x="230.8" y="-118.2" font-family="Helvetica,sans-Serif" font-size="14.00">R9</text>
</g>
<!-- M8&#45;&#45;R9 -->
<g id="edge65" class="edge">
<title>M8--R9</title>
<path fill="none" stroke="#424242" stroke-width="1.5" d="M150.73,-196.02C168.06,-180.3 192.57,-158.07 209.9,-142.36"/>
</g>
<!-- R8&#45;&#45;M9 -->
<g id="edge66" class="edge">
<title>R8--M9</title>
<path fill="none" stroke="#424242" stroke-width="1.5" d="M209.87,-196.02C192.54,-180.3 168.03,-158.07 150.7,-142.36"/>
</g>
<!-- R8&#45;&#45;R9 -->
<g id="edge67" class="edge">
<title>R8--R9</title>
<path fill="none" stroke="#424242" stroke-width="1.5" d="M230.8,-187.02C230.8,-175.76 230.8,-162.8 230.8,-151.53"/>
</g>
<!-- L9&#45;&#45;M9 -->
<g id="edge18" class="edge">
<title>L9--M9</title>
<path fill="none" stroke="#424242" stroke-width="1.5" d="M58,-122.4C72.21,-122.4 86.42,-122.4 100.63,-122.4"/>
</g>
<!-- M10 -->
<g id="node27" class="node">
<title>M10</title>
<ellipse fill="#ffcc80" stroke="#e65100" stroke-width="2.5" cx="129.8" cy="-28.8" rx="28.8" ry="28.8"/>
<text xml:space="preserve" text-anchor="middle" x="129.8" y="-24.6" font-family="Helvetica,sans-Serif" font-size="14.00">🦊 M10</text>
</g>
<!-- L9&#45;&#45;M10 -->
<g id="edge68" class="edge">
<title>L9--M10</title>
<path fill="none" stroke="#424242" stroke-width="1.5" d="M49.73,-102.42C66.83,-86.91 90.92,-65.06 108.2,-49.39"/>
</g>
<!-- M9&#45;&#45;R9 -->
<g id="edge19" class="edge">
<title>M9--R9</title>
<path fill="none" stroke="#424242" stroke-width="1.5" d="M159,-122.4C173.21,-122.4 187.42,-122.4 201.63,-122.4"/>
</g>
<!-- M9&#45;&#45;M10 -->
<g id="edge69" class="edge">
<title>M9--M10</title>
<path fill="none" stroke="#424242" stroke-width="1.5" d="M129.8,-93.42C129.8,-82.37 129.8,-69.68 129.8,-58.56"/>
</g>
<!-- R9&#45;&#45;M10 -->
<g id="edge70" class="edge">
<title>R9--M10</title>
<path fill="none" stroke="#424242" stroke-width="1.5" d="M209.87,-102.42C192.77,-86.91 168.68,-65.06 151.4,-49.39"/>
</g>
</g>
</svg>
