<svg xmlns="http://www.w3.org/2000/svg" width="640" height="1040" viewBox="0 0 640 1040">
<defs>
  <style>
    .edge { stroke: #424242; stroke-width: 2.0; }
    .bridge { stroke: #1565c0; stroke-width: 4.5; }
    .perekop-bg { fill: #e1f5fe; stroke: #81d4fa; stroke-dasharray: 6,4; stroke-width: 1.5; }
    .perekop-text { font-family: Helvetica, Arial, sans-serif; font-size: 16px; font-weight: bold; fill: #0277bd; letter-spacing: 8px; text-anchor: middle; }
    .node-text { font-family: Helvetica, Arial, sans-serif; font-size: 14px; font-weight: bold; fill: #212121; text-anchor: middle; dominant-baseline: central; }
  </style>
</defs>
<rect width="100%" height="100%" fill="#fafafa" />
<rect x="40" y="685" width="560" height="45" rx="8" class="perekop-bg" />
<text x="320" y="713" class="perekop-text">П Е Р Е К О П</text>
<line x1="320" y1="70" x2="320" y2="165" class="edge" />
<line x1="320" y1="165" x2="320" y2="260" class="edge" />
<line x1="320" y1="260" x2="320" y2="355" class="edge" />
<line x1="320" y1="355" x2="320" y2="450" class="edge" />
<line x1="320" y1="450" x2="320" y2="545" class="edge" />
<line x1="320" y1="545" x2="320" y2="640" class="edge" />
<line x1="320" y1="640" x2="320" y2="775" class="bridge" />
<line x1="320" y1="775" x2="320" y2="870" class="edge" />
<line x1="320" y1="870" x2="320" y2="965" class="edge" />
<line x1="120" y1="70" x2="320" y2="70" class="edge" />
<line x1="320" y1="70" x2="520" y2="70" class="edge" />
<line x1="120" y1="260" x2="320" y2="260" class="edge" />
<line x1="320" y1="260" x2="520" y2="260" class="edge" />
<line x1="120" y1="450" x2="320" y2="450" class="edge" />
<line x1="320" y1="450" x2="520" y2="450" class="edge" />
<line x1="120" y1="640" x2="320" y2="640" class="edge" />
<line x1="320" y1="640" x2="520" y2="640" class="edge" />
<line x1="120" y1="775" x2="320" y2="775" class="edge" />
<line x1="320" y1="775" x2="520" y2="775" class="edge" />
<line x1="120" y1="870" x2="320" y2="870" class="edge" />
<line x1="320" y1="870" x2="520" y2="870" class="edge" />
<line x1="120" y1="70" x2="120" y2="260" class="edge" />
<line x1="520" y1="70" x2="520" y2="260" class="edge" />
<line x1="120" y1="260" x2="120" y2="450" class="edge" />
<line x1="520" y1="260" x2="520" y2="450" class="edge" />
<line x1="120" y1="450" x2="120" y2="640" class="edge" />
<line x1="520" y1="450" x2="520" y2="640" class="edge" />
<line x1="120" y1="775" x2="120" y2="870" class="edge" />
<line x1="520" y1="775" x2="520" y2="870" class="edge" />
<line x1="120" y1="70" x2="320" y2="165" class="edge" />
<line x1="520" y1="70" x2="320" y2="165" class="edge" />
<line x1="320" y1="165" x2="120" y2="260" class="edge" />
<line x1="320" y1="165" x2="520" y2="260" class="edge" />
<line x1="120" y1="260" x2="320" y2="355" class="edge" />
<line x1="520" y1="260" x2="320" y2="355" class="edge" />
<line x1="320" y1="355" x2="120" y2="450" class="edge" />
<line x1="320" y1="355" x2="520" y2="450" class="edge" />
<line x1="120" y1="450" x2="320" y2="545" class="edge" />
<line x1="520" y1="450" x2="320" y2="545" class="edge" />
<line x1="320" y1="545" x2="120" y2="640" class="edge" />
<line x1="320" y1="545" x2="520" y2="640" class="edge" />
<line x1="120" y1="870" x2="320" y2="965" class="edge" />
<line x1="520" y1="870" x2="320" y2="965" class="edge" />
<circle cx="120" cy="70" r="28" fill="#f5f5f5" stroke="#757575" stroke-width="1.8" />
<text x="120" y="70" class="node-text">L0</text>
<circle cx="320" cy="70" r="28" fill="#ffe082" stroke="#ff8f00" stroke-width="2.5" />
<text x="320" y="70" class="node-text">C0</text>
<circle cx="520" cy="70" r="28" fill="#f5f5f5" stroke="#757575" stroke-width="1.8" />
<text x="520" y="70" class="node-text">R0</text>
<circle cx="320" cy="165" r="28" fill="#f5f5f5" stroke="#757575" stroke-width="1.8" />
<text x="320" y="165" class="node-text">C1</text>
<circle cx="120" cy="260" r="28" fill="#f5f5f5" stroke="#757575" stroke-width="1.8" />
<text x="120" y="260" class="node-text">L2</text>
<circle cx="320" cy="260" r="28" fill="#f5f5f5" stroke="#757575" stroke-width="1.8" />
<text x="320" y="260" class="node-text">C2</text>
<circle cx="520" cy="260" r="28" fill="#f5f5f5" stroke="#757575" stroke-width="1.8" />
<text x="520" y="260" class="node-text">R2</text>
<circle cx="320" cy="355" r="32" fill="none" stroke="#c62828" stroke-width="1.5" />
<circle cx="320" cy="355" r="28" fill="#ffcdd2" stroke="#c62828" stroke-width="2.5" />
<text x="320" y="355" class="node-text">⭐ C3</text>
<circle cx="120" cy="450" r="32" fill="none" stroke="#c62828" stroke-width="1.5" />
<circle cx="120" cy="450" r="28" fill="#ffcdd2" stroke="#c62828" stroke-width="2.5" />
<text x="120" y="450" class="node-text">⭐ L4</text>
<circle cx="320" cy="450" r="28" fill="#b0bec5" stroke="#263238" stroke-width="2.5" />
<text x="320" y="450" class="node-text">C4</text>
<circle cx="520" cy="450" r="32" fill="none" stroke="#c62828" stroke-width="1.5" />
<circle cx="520" cy="450" r="28" fill="#ffcdd2" stroke="#c62828" stroke-width="2.5" />
<text x="520" y="450" class="node-text">⭐ R4</text>
<circle cx="320" cy="545" r="28" fill="#f5f5f5" stroke="#757575" stroke-width="1.8" />
<text x="320" y="545" class="node-text">C5</text>
<circle cx="120" cy="640" r="28" fill="#f5f5f5" stroke="#757575" stroke-width="1.8" />
<text x="120" y="640" class="node-text">L6</text>
<circle cx="320" cy="640" r="28" fill="#bbdefb" stroke="#1976d2" stroke-width="1.8" />
<text x="320" y="640" class="node-text">C6</text>
<circle cx="520" cy="640" r="28" fill="#f5f5f5" stroke="#757575" stroke-width="1.8" />
<text x="520" y="640" class="node-text">R6</text>
<circle cx="120" cy="775" r="28" fill="#f5f5f5" stroke="#757575" stroke-width="1.8" />
<text x="120" y="775" class="node-text">L7</text>
<circle cx="320" cy="775" r="28" fill="#bbdefb" stroke="#1976d2" stroke-width="1.8" />
<text x="320" y="775" class="node-text">C7</text>
<circle cx="520" cy="775" r="28" fill="#f5f5f5" stroke="#757575" stroke-width="1.8" />
<text x="520" y="775" class="node-text">R7</text>
<circle cx="120" cy="870" r="28" fill="#f5f5f5" stroke="#757575" stroke-width="1.8" />
<text x="120" y="870" class="node-text">L8</text>
<circle cx="320" cy="870" r="28" fill="#f5f5f5" stroke="#757575" stroke-width="1.8" />
<text x="320" y="870" class="node-text">C8</text>
<circle cx="520" cy="870" r="28" fill="#f5f5f5" stroke="#757575" stroke-width="1.8" />
<text x="520" y="870" class="node-text">R8</text>
<circle cx="320" cy="965" r="28" fill="#ffcc80" stroke="#e65100" stroke-width="2.5" />
<text x="320" y="965" class="node-text">C9</text>
</svg>